<?xml version="1.0" encoding="UTF-8"?>
<svg id="a" data-name="Layer 1" xmlns="http://www.w3.org/2000/svg" viewBox="0 0 836.33 836.33">
  <defs>
    <style>
	  path {
		fill: #273240;
	  }
	  @media (prefers-color-scheme: dark) {
		path { fill: #ffffff; }
	  }
      .b {
        stroke-width: 0px;
      }
    </style>
  </defs>
  <path class="b" d="M694.36,0H141.98C63.57,0,0,63.57,0,141.98v552.38c0,78.41,63.57,141.98,141.98,141.98h552.38c78.41,0,141.98-63.57,141.98-141.98V141.98C836.33,63.57,772.77,0,694.36,0ZM485.65,310.42h-177.23v270.87c0,28.2,7.55,49.86,22.66,64.95,15.09,15.11,36.41,22.66,63.94,22.66h90.64v102.72h-81.58c-44.98,0-82.92-6.05-113.8-18.12-30.88-12.08-54.2-32.89-69.98-62.44-15.78-29.53-23.66-69.48-23.66-119.83v-260.81h-89.62v-87.61h89.62V64.71h111.78v158.09h177.23v87.61ZM729.32,765.57h-136.95v-141.98h136.95v141.98Z"/>
</svg>
